<?xml version="1.0" standalone="no"?>
<!DOCTYPE svg PUBLIC "-//W3C//DTD SVG 20010904//EN"
 "http://www.w3.org/TR/2001/REC-SVG-20010904/DTD/svg10.dtd">
<svg version="1.0" xmlns="http://www.w3.org/2000/svg"
 width="512.000000pt" height="512.000000pt" viewBox="0 0 512.000000 512.000000"
 preserveAspectRatio="xMidYMid meet">

<g transform="translate(0.000000,512.000000) scale(0.100000,-0.100000)"
fill="#000000" stroke="none">
<path d="M1753 4945 c-198 -36 -364 -123 -509 -269 -128 -128 -210 -270 -255
-445 -21 -80 -37 -289 -25 -335 16 -63 79 -85 130 -45 25 20 26 24 26 122 1
334 168 609 456 748 375 182 837 34 1043 -332 74 -132 107 -287 97 -454 -6
-100 -27 -240 -37 -249 -2 -2 -14 -7 -26 -10 -18 -6 -25 -1 -39 29 -35 75
-131 135 -216 135 -125 0 -238 113 -238 237 0 44 -38 83 -80 83 -42 0 -80 -39
-80 -83 0 -56 -29 -123 -72 -166 -64 -63 -101 -71 -326 -71 -119 0 -210 -5
-233 -12 -49 -14 -114 -69 -138 -115 l-18 -36 -74 -1 c-59 -1 -85 -6 -124 -27
-93 -47 -143 -142 -131 -250 9 -88 41 -162 98 -224 68 -74 124 -106 230 -129
20 -5 33 -19 52 -62 30 -65 100 -166 145 -208 30 -29 31 -32 31 -122 0 -87 -1
-92 -23 -98 -34 -8 -217 -198 -217 -226 0 -12 115 -396 255 -853 141 -456 255
-831 253 -832 -3 -2 -328 410 -527 666 l-53 69 36 145 c20 79 36 154 36 166 0
15 -39 62 -116 139 l-115 117 41 176 c39 167 41 177 25 206 -28 55 -90 52
-247 -15 -237 -99 -459 -326 -549 -558 -76 -198 -73 -157 -77 -888 l-3 -658
25 -25 25 -25 1511 0 1511 0 24 25 c30 29 32 74 6 106 l-19 24 -577 5 -577 5
396 504 c218 277 396 512 396 523 0 10 -16 82 -36 160 l-35 141 115 117 c85
85 116 123 116 141 -1 13 -11 75 -24 137 l-23 113 21 -7 c57 -17 179 -106 268
-196 107 -107 127 -116 174 -75 41 36 37 74 -16 142 -102 132 -284 257 -459
314 -84 28 -122 27 -149 -2 -28 -30 -28 -42 10 -230 l31 -158 -116 -118 c-77
-78 -117 -125 -117 -140 0 -12 16 -87 36 -166 l36 -145 -53 -69 c-199 -256
-524 -668 -527 -666 -2 1 112 376 253 832 140 457 255 841 255 853 0 28 -183
218 -217 226 -22 6 -23 11 -23 98 0 90 1 93 31 122 45 42 115 143 144 207 25
53 28 56 76 66 153 33 267 149 299 306 23 109 -8 211 -81 268 l-31 24 18 99
c25 132 25 370 1 468 -24 96 -62 188 -116 281 -62 107 -208 254 -320 323 -196
120 -445 168 -668 127z m374 -1156 c62 -57 154 -98 239 -106 52 -5 74 -12 91
-29 22 -23 23 -28 23 -222 0 -235 -8 -290 -61 -400 -79 -164 -236 -278 -417
-304 -235 -34 -467 83 -575 289 -56 106 -67 174 -67 409 0 184 2 204 19 225
19 24 22 24 248 29 l229 5 75 37 c40 20 90 53 108 72 19 20 37 36 39 36 3 0
25 -18 49 -41z m-946 -279 c17 -10 19 -23 19 -150 0 -158 -1 -159 -68 -110
-49 35 -81 93 -89 160 -5 45 -3 51 25 79 32 33 76 41 113 21z m1591 -21 c28
-28 30 -34 25 -81 -8 -63 -47 -130 -95 -163 -61 -42 -62 -41 -62 115 0 154 2
159 68 160 24 0 42 -8 64 -31z m-1110 -880 c69 -27 184 -49 258 -49 74 0 189
22 258 49 29 12 55 21 57 21 3 0 5 -40 5 -89 l0 -89 -157 -131 c-86 -72 -160
-131 -163 -131 -3 0 -77 59 -163 131 l-157 131 0 89 c0 49 2 89 5 89 2 0 28
-9 57 -21z m-37 -388 c82 -68 153 -127 157 -130 9 -8 -266 -205 -279 -200 -4
2 -36 93 -70 204 l-62 200 36 37 c31 31 39 35 52 25 9 -6 83 -68 166 -136z
m781 -131 c-35 -113 -66 -205 -68 -205 -14 0 -287 200 -280 206 4 4 81 69 171
144 l164 136 38 -38 38 -38 -63 -205z m-1580 -50 c-14 -61 -26 -120 -26 -132
0 -14 41 -62 116 -138 l115 -117 -36 -144 c-20 -79 -35 -153 -33 -164 3 -11
178 -241 389 -510 212 -270 388 -496 393 -502 6 -10 -83 -13 -428 -13 l-436 0
0 295 0 296 -25 24 c-32 33 -78 33 -110 0 l-25 -24 0 -296 0 -295 -201 0 -200
0 3 593 c4 671 1 642 89 824 81 168 199 296 365 393 38 22 70 36 72 30 2 -5
-8 -60 -22 -120z m1155 -101 c32 -23 59 -44 59 -47 0 -3 -19 -34 -41 -69 -39
-59 -44 -63 -79 -63 -35 0 -40 4 -80 65 -24 36 -40 69 -36 72 9 9 110 82 114
83 2 0 30 -19 63 -41z m-231 -290 c0 -30 -50 -331 -58 -353 -6 -13 -27 45 -71
190 -35 115 -66 214 -68 220 -2 6 22 30 53 52 l58 41 43 -64 c24 -35 43 -74
43 -86z m493 103 c26 -19 46 -40 44 -46 -2 -6 -33 -105 -68 -220 -44 -145 -65
-203 -71 -190 -8 22 -58 323 -58 353 0 28 82 151 95 143 5 -3 32 -21 58 -40z
m-308 -174 c11 -51 105 -629 105 -650 0 -28 -112 -398 -120 -398 -9 0 -120
365 -120 395 0 23 93 597 105 653 3 12 10 22 15 22 5 0 12 -10 15 -22z"/>
<path d="M3865 2055 c-23 -22 -25 -32 -25 -120 0 -52 -1 -95 -2 -95 -90 -13
-181 -38 -270 -75 -133 -56 -227 -84 -285 -84 -52 -1 -153 30 -189 58 -15 11
-40 21 -55 21 -53 0 -94 -68 -70 -113 16 -30 76 -70 136 -92 28 -10 52 -20 54
-21 2 -2 -61 -148 -139 -324 l-143 -322 11 -65 c13 -77 57 -175 102 -226 18
-21 65 -53 108 -74 74 -37 79 -38 181 -37 113 1 156 12 230 58 86 55 155 176
167 295 6 55 4 60 -135 374 -78 174 -141 319 -141 322 0 3 10 5 21 5 12 0 80
25 151 55 256 108 423 113 646 19 48 -20 116 -47 152 -60 39 -14 64 -29 62
-36 -2 -7 -64 -152 -139 -321 l-137 -308 12 -71 c17 -96 56 -173 118 -235 64
-62 138 -93 244 -100 223 -16 384 112 422 335 l12 71 -142 319 c-78 176 -142
322 -142 326 0 3 7 6 16 6 26 0 121 49 153 79 39 36 41 77 6 115 -32 34 -69
33 -123 -4 -92 -62 -219 -64 -361 -4 -141 60 -235 92 -287 99 -89 12 -84 5
-84 111 0 87 -2 97 -25 119 -15 16 -36 25 -55 25 -19 0 -40 -9 -55 -25z m-486
-872 c50 -115 91 -211 91 -215 0 -9 -380 -11 -380 -2 0 13 184 424 190 424 4
0 48 -93 99 -207z m1279 0 c51 -115 92 -211 92 -215 0 -5 -85 -8 -190 -8 -104
0 -190 3 -190 8 0 13 184 422 190 422 3 0 47 -93 98 -207z m-1164 -415 c-52
-104 -167 -150 -289 -117 -49 14 -101 51 -126 93 -35 57 -39 56 206 56 l226 0
-17 -32z m1286 21 c0 -18 -21 -53 -53 -87 -77 -80 -257 -80 -334 0 -32 34 -53
69 -53 87 0 8 71 11 220 11 149 0 220 -3 220 -11z"/>
<path d="M3865 1495 l-25 -24 0 -576 0 -575 -175 0 c-173 0 -176 0 -200 -25
-16 -15 -25 -36 -25 -55 0 -19 9 -40 25 -55 l24 -25 431 0 431 0 24 25 c33 32
33 78 0 110 -24 25 -27 25 -200 25 l-175 0 0 575 0 576 -25 24 c-15 16 -36 25
-55 25 -19 0 -40 -9 -55 -25z"/>
</g>
</svg>
