<?xml version="1.0" standalone="no"?>
<!DOCTYPE svg PUBLIC "-//W3C//DTD SVG 20010904//EN"
 "http://www.w3.org/TR/2001/REC-SVG-20010904/DTD/svg10.dtd">
<svg version="1.0" xmlns="http://www.w3.org/2000/svg"
 width="512.000000pt" height="512.000000pt" viewBox="0 0 512.000000 512.000000"
 preserveAspectRatio="xMidYMid meet">

<g transform="translate(0.000000,512.000000) scale(0.100000,-0.100000)"
fill="#000000" stroke="none">
<path d="M1455 4786 c-72 -33 -95 -83 -95 -205 l0 -88 -177 -6 c-136 -4 -197
-10 -258 -26 -231 -61 -414 -209 -515 -415 -92 -187 -85 -45 -85 -1641 0
-1537 -4 -1431 55 -1587 66 -178 260 -372 438 -438 156 -59 34 -55 1742 -55
1708 0 1586 -4 1742 55 178 66 372 260 438 438 59 156 55 50 55 1587 l0 1410
-23 78 c-68 235 -227 422 -444 521 -112 52 -200 68 -395 74 l-171 4 -4 104
c-3 111 -13 134 -72 178 -39 29 -133 29 -172 0 -59 -44 -69 -67 -72 -180 l-4
-104 -878 0 -878 0 -4 104 c-3 112 -13 136 -70 179 -34 25 -113 32 -153 13z
m-95 -713 c0 -83 4 -104 23 -137 60 -107 214 -107 274 0 19 33 23 54 23 137
l0 97 880 0 880 0 0 -97 c0 -83 4 -104 23 -137 60 -107 214 -107 274 0 19 33
23 54 23 138 l0 99 163 -5 c182 -6 250 -22 341 -83 150 -100 216 -240 216
-459 l0 -106 -1920 0 -1920 0 1 113 c0 72 6 135 17 178 35 134 128 244 257
305 87 42 144 51 313 53 l132 1 0 -97z m3120 -1932 c0 -678 -4 -1078 -10
-1112 -25 -131 -124 -266 -239 -328 -122 -65 -25 -61 -1671 -61 -1646 0 -1549
-4 -1671 61 -70 38 -157 126 -193 197 -58 114 -56 72 -56 1234 l0 1068 1920 0
1920 0 0 -1059z"/>
<path d="M3295 2579 c-11 -6 -230 -221 -487 -478 l-468 -466 -247 247 c-137
135 -258 251 -270 257 -12 6 -42 11 -66 11 -113 0 -191 -126 -139 -226 12 -22
154 -172 329 -346 261 -259 314 -308 351 -319 91 -26 74 -41 655 539 312 311
537 543 549 566 52 101 -26 226 -141 226 -25 0 -55 -5 -66 -11z"/>
</g>
</svg>
