<?xml version="1.0" standalone="no"?>
<!DOCTYPE svg PUBLIC "-//W3C//DTD SVG 20010904//EN"
 "http://www.w3.org/TR/2001/REC-SVG-20010904/DTD/svg10.dtd">
<svg version="1.0" xmlns="http://www.w3.org/2000/svg"
 width="512.000000pt" height="512.000000pt" viewBox="0 0 512.000000 512.000000"
 preserveAspectRatio="xMidYMid meet">

<g transform="translate(0.000000,512.000000) scale(0.100000,-0.100000)"
fill="#000000" stroke="none">
<path d="M2143 4880 c-147 -30 -300 -173 -344 -323 -73 -249 22 -526 261 -766
93 -93 274 -232 375 -287 61 -34 78 -39 135 -39 53 1 76 7 127 33 140 72 387
283 483 412 60 80 124 212 146 300 23 89 21 235 -4 322 -51 178 -196 313 -376
349 -109 22 -226 -14 -337 -104 l-54 -44 -45 40 c-54 48 -146 93 -219 107 -61
11 -88 11 -148 0z m205 -145 c30 -14 83 -53 121 -90 80 -77 106 -83 148 -33
95 112 165 152 268 152 249 0 406 -288 311 -569 -56 -164 -176 -313 -384 -474
-141 -111 -208 -146 -258 -138 -45 8 -114 50 -242 150 -211 165 -329 308 -382
463 -62 180 -40 349 60 458 105 113 227 141 358 81z"/>
<path d="M2625 4260 l-139 -139 -67 64 c-71 69 -102 80 -132 47 -35 -38 -22
-63 82 -166 85 -83 103 -97 123 -91 13 4 98 82 191 173 175 175 190 198 151
236 -37 38 -63 22 -209 -124z"/>
<path d="M1671 3594 c-152 -55 -244 -185 -244 -344 0 -98 28 -172 94 -244 l49
-54 -32 -13 c-46 -19 -158 -134 -190 -195 -48 -90 -58 -150 -58 -361 0 -187 1
-192 22 -207 20 -14 155 -16 1248 -16 1093 0 1228 2 1248 16 21 15 22 20 22
207 0 128 -5 209 -14 242 -30 115 -107 225 -199 285 l-64 43 39 39 c22 22 54
70 71 106 27 57 31 78 31 147 0 66 -5 90 -27 140 -38 81 -69 120 -130 160
-189 124 -430 58 -530 -144 -29 -59 -32 -74 -32 -156 1 -106 24 -169 94 -247
l41 -47 -54 -36 c-65 -43 -113 -95 -152 -161 -15 -27 -29 -51 -31 -53 -1 -2
-20 12 -41 31 -22 20 -47 40 -57 45 -16 9 -14 14 17 55 94 123 69 304 -56 399
-182 139 -443 25 -463 -201 -7 -76 11 -140 54 -197 19 -25 33 -46 31 -47 -2
-1 -27 -21 -56 -45 -29 -24 -55 -42 -56 -40 -2 2 -14 24 -26 48 -28 57 -112
146 -167 178 -24 14 -43 28 -43 32 0 4 18 24 39 45 22 21 52 66 68 100 24 52
28 74 28 146 0 74 -4 93 -31 150 -38 79 -97 140 -172 177 -70 34 -201 43 -271
17z m214 -123 c80 -36 145 -136 145 -223 0 -87 -62 -182 -145 -219 -48 -22
-142 -25 -189 -5 -45 19 -104 72 -125 115 -61 120 -11 270 112 330 54 27 146
28 202 2z m1521 4 c145 -43 212 -209 139 -344 -92 -168 -324 -170 -422 -4 -23
40 -28 59 -28 118 0 82 26 139 86 187 69 56 138 69 225 43z m-769 -321 c114
-55 123 -222 16 -294 -51 -35 -135 -35 -186 0 -55 38 -80 90 -75 155 10 121
134 191 245 139z m-709 -296 c68 -25 163 -113 197 -181 30 -63 47 -180 43
-302 l-3 -90 -378 -3 -379 -2 4 162 c3 152 5 167 30 220 86 184 292 267 486
196z m1565 -13 c73 -34 147 -108 183 -182 27 -55 29 -66 32 -221 l4 -162 -379
2 -378 3 -3 93 c-8 266 73 417 261 484 77 28 203 20 280 -17z m-798 -162 c52
-27 89 -67 114 -123 17 -37 21 -66 21 -162 l0 -118 -270 0 -270 0 0 111 c0 62
5 129 12 150 20 69 89 134 168 160 46 15 181 4 225 -18z"/>
<path d="M614 2986 c-28 -13 -67 -43 -87 -67 -69 -80 -68 -78 -65 -731 3 -578
4 -584 27 -653 25 -78 69 -161 114 -219 17 -21 143 -139 281 -263 291 -262
300 -270 335 -343 25 -53 26 -63 29 -253 4 -188 5 -198 25 -212 18 -13 97 -15
544 -15 515 0 523 0 544 21 20 20 20 27 17 412 l-3 392 -26 66 c-36 94 -74
155 -136 221 -74 76 -109 99 -266 171 l-135 62 -291 265 c-304 276 -350 310
-428 310 -28 0 -43 4 -43 13 0 71 -71 661 -83 688 -56 134 -220 197 -353 135z
m183 -116 c61 -37 64 -47 99 -383 42 -389 42 -372 4 -404 -49 -41 -82 -117
-83 -189 -1 -110 17 -135 332 -441 242 -235 284 -273 310 -273 36 0 66 37 56
69 -3 11 -130 141 -281 289 -290 283 -314 313 -298 380 23 93 131 142 209 93
17 -10 159 -136 316 -279 l286 -260 129 -58 c71 -32 147 -70 169 -85 58 -39
129 -118 159 -178 52 -101 56 -139 56 -483 l0 -318 -444 0 -443 0 -5 163 c-6
180 -19 233 -82 321 -18 25 -154 156 -302 289 -286 257 -331 308 -375 429 -23
63 -23 63 -26 643 -3 540 -2 582 14 615 38 74 132 102 200 60z"/>
<path d="M4285 2986 c-56 -25 -110 -81 -132 -135 -12 -27 -83 -617 -83 -688 0
-9 -15 -13 -42 -13 -78 0 -125 -34 -428 -310 l-292 -265 -135 -62 c-157 -72
-192 -95 -266 -171 -62 -66 -100 -127 -136 -221 l-26 -66 -3 -392 c-3 -385 -3
-392 17 -412 21 -21 29 -21 544 -21 447 0 526 2 544 15 20 14 21 24 25 212 3
190 4 200 30 253 35 73 34 72 325 334 139 125 268 246 287 269 47 59 90 140
117 222 23 69 24 75 27 653 3 653 4 651 -65 731 -75 88 -203 116 -308 67z
m186 -119 c72 -48 70 -24 66 -672 -3 -580 -3 -580 -26 -643 -44 -121 -89 -172
-376 -430 -148 -134 -284 -264 -302 -289 -62 -87 -75 -140 -81 -320 l-5 -163
-443 0 -444 0 0 318 c0 344 4 382 56 484 30 59 110 148 163 181 20 12 95 49
168 82 l131 60 291 265 c160 145 301 270 314 277 55 31 146 5 183 -52 20 -31
23 -89 6 -130 -7 -17 -134 -150 -283 -295 -149 -145 -276 -274 -281 -286 -16
-34 13 -74 53 -74 26 0 68 38 310 273 315 306 333 331 332 441 -1 73 -34 148
-85 191 l-32 27 18 182 c38 386 54 507 71 532 41 63 134 83 196 41z"/>
</g>
</svg>
