<?xml version="1.0" standalone="no"?>
<!DOCTYPE svg PUBLIC "-//W3C//DTD SVG 20010904//EN"
 "http://www.w3.org/TR/2001/REC-SVG-20010904/DTD/svg10.dtd">
<svg version="1.0" xmlns="http://www.w3.org/2000/svg"
 width="512.000000pt" height="512.000000pt" viewBox="0 0 512.000000 512.000000"
 preserveAspectRatio="xMidYMid meet">

<g transform="translate(0.000000,512.000000) scale(0.100000,-0.100000)"
fill="#000000" stroke="none">
<path d="M123 5096 l-28 -24 0 -409 0 -408 93 -157 92 -156 0 -636 0 -636 -36
0 c-137 0 -236 -107 -237 -255 -1 -115 49 -193 148 -231 l45 -17 2 -796 3
-796 23 -50 c67 -145 239 -222 403 -181 112 29 194 100 237 209 15 38 17 124
20 829 l3 788 50 21 c94 41 159 155 145 256 -16 122 -129 223 -250 223 l-36 0
0 200 c0 200 0 201 -25 225 -30 30 -64 32 -99 4 l-26 -20 0 -205 0 -204 -103
0 -104 0 -6 107 c-4 58 -7 354 -7 656 l0 550 -92 156 -93 156 -3 203 -3 202
300 0 301 0 0 -197 -1 -198 -94 -164 -95 -165 0 -281 c0 -271 1 -283 20 -300
30 -27 88 -25 111 4 17 21 19 44 19 281 l0 258 95 164 95 163 0 393 c0 402 -2
420 -39 449 -12 9 -116 12 -408 13 l-392 0 -28 -24z m717 -186 l0 -60 -295 0
-295 0 0 60 0 60 295 0 295 0 0 -60z m34 -2404 c62 -26 74 -123 19 -166 -25
-19 -39 -20 -355 -20 l-329 0 -24 25 c-20 19 -25 34 -25 72 1 50 11 72 45 91
31 18 625 16 669 -2z"/>
<path d="M1693 5105 c-42 -18 -172 -143 -234 -224 -68 -89 -163 -285 -195
-401 -31 -116 -43 -306 -25 -402 38 -195 173 -342 380 -414 l66 -23 3 -143 c2
-79 0 -360 -3 -624 l-7 -482 -61 -73 c-126 -155 -245 -370 -307 -557 -66 -204
-81 -309 -87 -615 l-5 -278 -32 -13 c-96 -40 -156 -138 -155 -251 1 -81 12
-116 55 -178 50 -70 110 -94 274 -106 205 -15 338 -55 553 -162 106 -54 255
-107 377 -135 65 -15 150 -18 650 -21 390 -3 607 -1 675 7 179 20 327 66 509
157 204 102 325 137 552 158 151 14 181 24 235 77 78 78 105 222 61 319 -24
53 -84 112 -134 134 l-38 15 0 216 c0 254 -11 366 -50 531 -52 217 -149 430
-278 613 -71 100 -293 333 -352 369 -35 21 -97 27 -134 12 -14 -5 -38 4 -85
32 -105 64 -257 134 -368 169 l-103 33 0 35 c0 20 -7 45 -15 57 -19 27 -155
80 -253 99 -150 29 -308 13 -460 -46 -90 -35 -112 -56 -112 -112 0 -36 -1 -37
-57 -53 -32 -9 -89 -28 -126 -42 -38 -14 -70 -23 -73 -21 -2 3 -1 200 2 439
l7 435 78 27 c214 76 340 223 376 438 30 174 -10 386 -112 594 -99 202 -292
415 -375 415 -79 0 -80 -6 -80 -382 0 -265 -3 -328 -14 -344 -13 -18 -28 -19
-194 -19 -137 0 -183 3 -195 14 -15 12 -17 48 -17 336 0 332 -5 376 -40 395
-24 13 -38 12 -77 -5z m-34 -477 c-2 -210 0 -259 13 -288 18 -42 87 -107 125
-117 16 -5 118 -8 228 -8 195 0 201 1 245 25 24 14 58 44 75 68 l30 44 5 261
5 260 34 -38 c155 -177 260 -492 231 -696 -27 -187 -128 -292 -343 -352 -49
-14 -94 -33 -101 -42 -13 -17 -26 -486 -26 -906 l0 -157 -64 -40 c-43 -27 -68
-37 -77 -31 -22 13 -97 11 -127 -5 -15 -8 -36 -23 -46 -35 -11 -12 -22 -21
-25 -21 -3 0 -4 263 -3 585 3 512 2 589 -12 609 -11 17 -35 28 -87 41 -102 25
-198 76 -252 134 -87 92 -113 178 -104 340 8 153 53 298 138 441 38 65 124
180 135 180 3 0 4 -114 3 -252z m1462 -1738 c30 -6 78 -17 107 -26 l52 -17 0
-983 0 -984 -270 0 -270 0 0 984 0 983 68 21 c37 11 78 23 92 25 50 8 168 7
221 -3z m-531 -1110 l0 -900 -235 0 -235 0 0 793 0 793 78 47 c120 72 332 165
380 167 9 0 12 -186 12 -900z m942 874 c87 -32 208 -91 301 -147 l67 -42 0
-453 0 -453 25 -24 c30 -31 73 -32 103 -5 l22 21 0 449 c0 248 4 450 9 450 15
0 139 -120 204 -198 163 -195 277 -417 338 -654 35 -138 49 -280 49 -505 l0
-213 -300 0 -300 0 0 167 c0 157 -1 168 -22 190 -29 31 -72 30 -103 -2 -25
-24 -25 -27 -25 -190 l0 -165 -235 0 -235 0 0 900 c0 777 2 900 14 900 8 0 48
-12 88 -26z m-1562 -989 l0 -785 -300 0 -300 0 0 200 c0 298 23 461 92 660 42
119 136 298 216 410 66 93 260 300 281 300 8 0 11 -233 11 -785z m2798 -949
c47 -25 74 -62 79 -110 5 -43 3 -48 -33 -84 -39 -39 -39 -39 -143 -46 -211
-13 -375 -60 -621 -176 -155 -74 -221 -98 -340 -126 -66 -15 -147 -18 -650
-21 -751 -5 -774 -2 -1094 149 -264 124 -395 162 -598 174 -135 8 -161 19
-183 77 -27 72 0 140 65 166 16 6 640 10 1758 10 1470 1 1737 -1 1760 -13z"/>
<path d="M3883 5099 c-56 -28 -78 -66 -98 -174 -22 -121 -23 -124 -50 -131
-14 -3 -61 -30 -105 -59 l-81 -53 -104 36 c-96 33 -107 34 -145 23 -60 -18
-91 -53 -169 -190 -61 -107 -71 -131 -71 -173 0 -68 17 -95 106 -170 l77 -66
2 -130 2 -130 -69 -59 c-87 -73 -108 -106 -108 -169 0 -41 10 -66 75 -181 115
-201 139 -213 315 -157 l115 36 54 -35 c29 -20 77 -46 106 -59 l53 -23 18 -99
c31 -172 64 -198 258 -204 167 -6 223 6 269 57 29 32 36 51 51 132 24 129 23
125 58 140 17 7 65 35 106 61 l74 49 95 -32 c108 -36 161 -36 211 0 33 23 167
247 183 306 18 65 -2 105 -97 193 l-86 79 -2 127 -2 127 66 55 c92 78 110 106
110 173 0 49 -7 66 -77 188 -112 194 -145 209 -322 149 l-103 -35 -44 30 c-25
17 -73 44 -108 60 l-63 29 -17 98 c-32 180 -63 201 -291 202 -132 0 -155 -2
-192 -21z m320 -141 c2 -7 12 -59 22 -116 18 -101 41 -152 69 -152 23 0 162
-72 212 -111 28 -21 62 -39 75 -39 13 0 74 18 136 40 l111 39 61 -104 c34 -58
61 -109 61 -114 0 -5 -38 -41 -85 -81 -47 -40 -90 -81 -96 -92 -7 -13 -6 -50
1 -116 8 -64 9 -119 3 -163 -5 -37 -6 -76 -2 -87 4 -11 48 -55 98 -98 50 -43
91 -82 91 -87 0 -12 -110 -206 -120 -212 -4 -3 -58 13 -120 34 -81 28 -119 37
-135 31 -12 -4 -50 -30 -86 -57 -35 -26 -93 -61 -129 -77 -36 -16 -73 -35 -82
-43 -10 -10 -25 -59 -40 -139 l-23 -124 -127 0 c-112 0 -127 2 -132 18 -2 9
-12 58 -21 107 -9 50 -18 98 -21 108 -4 11 -46 37 -107 66 -56 27 -124 65
-152 85 -30 22 -61 36 -79 36 -16 0 -73 -16 -128 -36 -55 -19 -105 -33 -112
-31 -7 3 -39 51 -70 107 -66 116 -70 99 45 197 43 36 81 74 85 85 3 10 1 58
-5 106 -8 59 -8 111 -2 161 12 95 7 105 -103 196 -47 39 -85 74 -85 79 -1 17
110 207 125 213 7 2 59 -11 114 -31 56 -20 111 -36 123 -36 12 0 47 20 77 45
30 25 96 66 146 90 104 51 103 50 129 190 9 50 18 98 21 108 5 15 20 17 129
17 89 0 124 -3 128 -12z"/>
<path d="M3977 4450 c-66 -17 -140 -61 -197 -119 -248 -251 -114 -668 235
-732 132 -25 282 25 379 125 212 217 146 569 -132 699 -57 27 -80 32 -157 34
-49 1 -107 -2 -128 -7z m199 -155 c138 -41 222 -203 180 -347 -20 -69 -86
-146 -153 -179 -60 -28 -168 -31 -226 -5 -122 54 -194 191 -167 320 34 166
198 261 366 211z"/>
</g>
</svg>
