<?xml version="1.0" standalone="no"?>
<!DOCTYPE svg PUBLIC "-//W3C//DTD SVG 20010904//EN"
 "http://www.w3.org/TR/2001/REC-SVG-20010904/DTD/svg10.dtd">
<svg version="1.0" xmlns="http://www.w3.org/2000/svg"
 width="512.000000pt" height="512.000000pt" viewBox="0 0 512.000000 512.000000"
 preserveAspectRatio="xMidYMid meet">

<g transform="translate(0.000000,512.000000) scale(0.100000,-0.100000)"
fill="#000000" stroke="none">
<path d="M2420 5015 c-249 -69 -441 -268 -495 -511 -25 -109 -17 -264 18 -362
80 -229 272 -399 502 -446 l60 -13 3 -341 2 -341 -127 -3 -127 -3 -55 -173
-55 -172 -65 -21 c-36 -11 -72 -23 -78 -25 -10 -5 -13 77 -13 389 l0 396 -26
20 c-26 20 -38 21 -315 21 l-288 0 -11 43 c-33 130 -96 243 -185 332 -205 205
-518 257 -777 130 -162 -79 -278 -210 -344 -387 -21 -58 -28 -96 -32 -185 -6
-139 13 -231 71 -346 53 -108 178 -235 284 -290 339 -177 761 -41 927 298 37
75 66 173 66 224 l0 31 240 0 240 0 0 -373 0 -373 -68 -33 -68 -33 -160 80
-161 80 -226 -226 -226 -227 83 -161 83 -161 -54 -109 c-29 -60 -70 -160 -90
-221 l-36 -112 -173 -58 -174 -58 0 -187 0 -188 435 0 435 0 0 84 c0 432 276
849 680 1027 190 85 429 118 628 89 376 -54 693 -285 863 -625 78 -158 109
-278 116 -447 l6 -128 434 0 433 0 -2 197 -3 198 -171 55 -172 55 -36 110
c-20 60 -62 160 -92 221 l-55 112 80 159 80 160 -227 226 -226 226 -162 -83
-162 -82 -86 43 -86 43 0 360 0 360 240 0 240 0 0 -31 c0 -47 28 -147 61 -216
87 -182 261 -324 453 -368 87 -20 242 -20 321 0 86 22 197 77 266 132 105 82
198 228 234 368 20 77 20 243 0 320 -37 143 -127 285 -237 371 -397 311 -963
112 -1088 -383 l-11 -43 -288 0 c-277 0 -289 -1 -315 -21 l-26 -20 0 -386 c0
-352 -1 -385 -16 -379 -9 4 -35 11 -58 17 l-42 10 -58 175 -57 174 -120 0
-119 0 2 342 3 341 65 13 c36 8 108 34 160 60 272 135 419 444 355 749 -45
215 -217 409 -435 490 -65 24 -92 29 -205 31 -94 3 -145 0 -185 -11z m289
-140 c314 -74 488 -415 366 -717 -44 -108 -43 -108 -120 -58 -36 23 -104 56
-153 73 -79 28 -98 31 -212 32 -112 0 -134 -3 -214 -29 -51 -17 -118 -48 -154
-73 -35 -23 -68 -40 -73 -37 -15 9 -55 95 -73 153 -23 77 -21 213 4 292 69
224 270 376 500 378 36 0 94 -6 129 -14z m-18 -825 c61 -12 181 -65 204 -90
15 -17 14 -19 -14 -39 -161 -115 -406 -117 -580 -7 l-45 29 25 20 c35 29 139
76 190 86 62 12 157 13 220 1z m-1861 -217 c295 -80 459 -406 350 -695 -11
-29 -29 -67 -40 -85 l-19 -32 -53 36 c-118 80 -236 115 -383 115 -148 0 -278
-39 -386 -117 l-48 -35 -27 46 c-44 75 -64 156 -64 258 0 158 48 272 159 379
142 137 320 183 511 130z m3750 0 c164 -45 309 -187 360 -351 40 -130 22 -304
-44 -416 l-27 -46 -48 35 c-108 78 -238 117 -386 117 -147 0 -265 -35 -383
-115 l-53 -36 -19 32 c-123 200 -89 473 79 644 136 138 329 189 521 136z
m-3740 -833 c65 -20 170 -74 170 -88 0 -14 -109 -74 -170 -93 -84 -26 -226
-26 -310 0 -61 19 -170 78 -170 93 0 11 82 57 142 80 107 40 218 43 338 8z
m3750 0 c65 -20 170 -74 170 -88 0 -14 -109 -74 -170 -93 -84 -26 -226 -26
-310 0 -61 19 -170 78 -170 93 0 11 82 57 142 80 107 40 218 43 338 8z m-1748
-312 l54 -161 85 -23 c158 -42 304 -103 424 -178 l40 -24 146 74 c81 41 150
74 155 74 5 0 75 -66 156 -147 l146 -146 -75 -151 -75 -151 51 -89 c65 -115
107 -214 147 -350 l31 -108 154 -50 c84 -27 157 -52 161 -54 4 -3 8 -34 8 -70
l0 -64 -285 0 -285 0 0 24 c0 97 -69 345 -131 468 -123 247 -337 461 -584 582
-211 104 -388 142 -624 133 -210 -7 -354 -43 -533 -132 -126 -62 -230 -137
-334 -240 -151 -150 -258 -325 -323 -529 -25 -78 -61 -252 -61 -298 0 -5 -128
-8 -285 -8 l-285 0 0 59 0 60 161 53 161 53 33 115 c37 129 83 240 149 356
l44 78 -76 153 -77 153 145 145 c80 80 151 145 158 145 7 0 73 -31 146 -70 73
-38 139 -70 146 -70 7 0 51 22 99 49 107 61 229 112 357 149 l99 28 47 149
c26 82 50 155 52 162 4 10 51 13 215 13 l209 0 54 -162z"/>
<path d="M2493 4764 c-103 -37 -176 -144 -175 -258 1 -74 20 -123 70 -178 129
-143 366 -105 445 72 25 56 27 159 4 212 -55 130 -212 198 -344 152z m155
-154 c103 -63 57 -220 -65 -220 -38 0 -50 5 -79 34 -33 33 -39 52 -34 106 3
37 17 59 53 80 41 25 83 25 125 0z"/>
<path d="M639 3739 c-177 -26 -275 -225 -193 -387 35 -68 94 -116 171 -138
168 -49 337 82 336 261 0 170 -142 289 -314 264z m109 -163 c84 -44 69 -186
-23 -216 -46 -15 -89 -5 -124 30 -50 51 -46 127 10 174 35 30 93 35 137 12z"/>
<path d="M4387 3739 c-153 -23 -256 -184 -213 -333 43 -148 189 -233 330 -192
200 58 267 304 122 449 -65 65 -143 90 -239 76z m126 -176 c53 -47 55 -123 5
-173 -104 -104 -268 40 -179 158 37 50 126 58 174 15z"/>
<path d="M2395 1904 c-299 -67 -556 -286 -666 -568 -16 -42 -36 -107 -44 -146
-20 -93 -19 -280 1 -377 71 -344 342 -623 691 -710 103 -26 332 -23 438 6 89
24 220 83 293 132 68 47 178 155 227 224 186 261 226 598 105 888 -109 261
-329 456 -611 538 -100 29 -331 36 -434 13z m356 -148 c240 -51 460 -238 553
-470 29 -74 56 -213 56 -290 -1 -128 -52 -298 -123 -408 l-36 -58 -66 50 c-82
62 -207 123 -311 152 -65 18 -107 22 -239 22 -139 1 -171 -2 -240 -22 -107
-31 -225 -89 -307 -151 l-66 -50 -31 47 c-85 133 -124 268 -123 427 0 137 24
231 87 354 99 192 288 340 500 392 87 22 256 24 346 5z m54 -1176 c39 -12 97
-36 130 -52 65 -33 155 -95 155 -107 0 -14 -117 -91 -183 -121 -182 -82 -391
-91 -582 -23 -73 26 -198 98 -228 131 -17 18 -15 20 42 61 78 54 178 100 266
123 100 25 302 19 400 -12z"/>
<path d="M2495 1546 c-70 -22 -120 -53 -164 -101 -60 -65 -84 -124 -89 -220
-5 -99 19 -170 80 -240 172 -196 470 -153 581 83 26 56 31 77 30 143 -1 117
-49 209 -147 284 -73 56 -204 78 -291 51z m163 -152 c136 -56 170 -227 65
-326 -128 -122 -333 -35 -333 142 0 140 141 237 268 184z"/>
</g>
</svg>
